<?xml version="1.0" standalone="no"?>
<!DOCTYPE svg PUBLIC "-//W3C//DTD SVG 20010904//EN"
 "http://www.w3.org/TR/2001/REC-SVG-20010904/DTD/svg10.dtd">
<svg version="1.0" xmlns="http://www.w3.org/2000/svg"
 width="233.000000pt" height="233.000000pt" viewBox="0 0 233.000000 233.000000"
 preserveAspectRatio="xMidYMid meet">
<metadata>
Created by potrace 1.14, written by Peter Selinger 2001-2017
</metadata>
<g transform="translate(0.000000,233.000000) scale(0.100000,-0.100000)"
fill="#000000" stroke="none">
<path d="M830 1857 c0 -15 -96 -168 -112 -178 -6 -4 -6 -19 0 -41 10 -38 -3
-68 -31 -68 -9 0 -18 -8 -21 -18 -4 -11 -18 -25 -32 -33 -14 -7 -35 -27 -46
-44 -12 -16 -28 -36 -36 -42 -11 -9 -15 -30 -13 -82 l2 -69 -40 -7 c-41 -7
-59 -35 -23 -35 14 -1 14 -3 -6 -20 -12 -10 -25 -32 -28 -49 -6 -30 -6 -30 27
-25 27 5 39 1 53 -15 11 -12 27 -21 37 -21 25 0 49 -11 49 -22 0 -6 -8 -8 -18
-6 -10 3 -23 -1 -30 -9 -22 -23 -45 -16 -38 11 8 34 -15 49 -62 41 -35 -6 -41
-3 -57 21 -10 16 -14 29 -8 31 21 7 76 53 64 53 -10 0 -12 10 -8 34 4 28 3 34
-9 29 -8 -3 -14 0 -14 6 0 17 -50 13 -56 -4 -5 -11 -10 -12 -18 -6 -9 8 -12 1
-13 -26 -1 -26 9 -53 33 -90 39 -61 27 -70 -22 -16 -63 68 -124 225 -119 303
1 19 3 45 4 57 1 25 21 39 68 46 17 3 37 8 42 12 6 3 11 1 11 -4 0 -6 8 -11
18 -10 11 0 12 2 4 6 -9 3 -7 10 9 23 l21 19 -26 -2 c-15 -1 -30 -7 -34 -13
-4 -6 -32 -17 -62 -24 -30 -7 -58 -18 -62 -24 -5 -7 -8 -3 -9 9 -1 17 -2 16
-8 -4 -10 -37 46 -291 68 -311 12 -10 62 -92 59 -95 -7 -7 -85 38 -115 67 -37
36 -73 121 -73 172 0 18 11 53 23 79 15 28 21 51 15 59 -5 9 -10 10 -15 2 -5
-6 -17 -14 -28 -18 -16 -6 -17 -9 -5 -16 8 -5 18 -6 22 -4 11 7 10 1 -7 -37
-8 -19 -15 -28 -16 -21 -1 6 -2 16 -3 21 -2 16 -24 35 -46 38 -16 2 -19 -2
-18 -23 2 -18 11 -29 34 -39 27 -11 32 -19 37 -61 3 -27 9 -58 13 -68 5 -13 4
-17 -4 -12 -6 4 -14 23 -18 42 -3 19 -8 33 -11 30 -2 -2 -18 0 -34 4 -24 7
-31 5 -43 -12 -11 -15 -12 -27 -6 -39 6 -9 7 -19 2 -22 -4 -2 -2 -2 5 -1 7 2
15 -1 18 -7 4 -5 22 -8 41 -7 28 2 41 -5 72 -36 l37 -38 -36 6 c-20 4 -44 3
-54 0 -15 -6 -15 -8 6 -19 17 -9 29 -10 46 -2 19 8 26 7 38 -9 13 -18 14 -18
8 5 l-6 25 23 -22 c13 -12 44 -29 69 -39 25 -9 52 -21 59 -26 16 -12 16 -49 0
-45 -17 3 -60 -21 -54 -30 3 -5 0 -14 -5 -22 -7 -11 -8 -8 -5 12 3 19 -3 34
-19 52 -13 14 -30 35 -39 48 -9 12 -16 17 -16 11 0 -7 4 -15 10 -18 17 -10 11
-25 -10 -25 -24 0 -24 1 -4 -38 9 -19 23 -32 35 -32 10 0 28 -9 39 -20 11 -11
17 -20 14 -20 -18 0 21 -30 46 -35 25 -5 45 -28 42 -46 -1 -3 10 -12 23 -19
14 -7 25 -19 25 -25 0 -13 82 -69 121 -83 17 -7 34 -4 62 11 31 16 42 17 65 8
35 -14 122 -10 122 6 0 14 -59 78 -80 86 -10 3 -11 8 -5 14 6 4 10 17 10 28 0
39 133 42 187 4 30 -22 36 -39 14 -39 -8 0 -24 -8 -36 -18 -19 -15 -21 -22
-11 -39 16 -30 71 -41 88 -17 7 10 10 27 7 37 -6 18 -3 19 27 13 38 -7 65 -29
86 -70 9 -17 25 -38 37 -48 41 -34 118 -16 134 31 15 43 -2 70 -65 97 -75 33
-93 50 -93 87 0 65 103 142 145 107 25 -20 18 -59 -16 -91 l-32 -30 29 11 c43
17 64 40 64 71 0 39 -24 59 -72 59 -83 0 -151 -63 -151 -138 0 -50 20 -73 83
-93 60 -19 80 -37 80 -69 0 -19 -7 -33 -19 -40 -44 -23 -69 -10 -137 77 -20
25 -47 44 -73 53 -22 7 -47 23 -55 35 -8 13 -36 33 -61 45 -40 19 -57 22 -118
17 -53 -4 -64 -3 -41 4 24 7 33 16 39 41 4 21 9 28 12 18 3 -8 11 -18 16 -22
12 -7 57 11 57 24 0 12 -40 26 -67 23 -12 -1 -24 4 -27 11 -6 16 -42 19 -51 3
-5 -6 -12 -4 -20 7 -11 16 -12 9 -10 -45 2 -59 1 -61 -11 -33 -7 17 -25 38
-39 48 -27 17 -27 18 -6 26 29 10 37 35 22 72 -7 17 -13 37 -14 44 -1 20 -13
14 -41 -19 -14 -17 -26 -27 -26 -22 0 17 58 65 69 58 6 -3 9 -11 6 -16 -4 -5
5 -20 19 -34 33 -33 84 -33 231 0 125 27 213 27 340 1 154 -32 259 -23 413 35
56 22 109 39 118 39 14 0 14 2 3 16 -7 9 -14 25 -16 35 -4 28 -33 69 -48 69
-7 0 -16 6 -18 13 -3 6 -6 3 -6 -8 -1 -17 -3 -18 -16 -4 -17 17 -30 165 -15
174 5 3 -9 29 -32 58 -22 29 -47 66 -55 82 -9 20 -13 23 -11 10 2 -19 -32 -94
-55 -123 -8 -10 -13 -8 -23 6 -13 19 -46 26 -159 38 -21 2 -46 6 -55 9 -8 2
-33 7 -55 10 -23 3 -50 7 -60 9 -11 2 -62 9 -114 16 -109 15 -114 19 -172 134
-21 43 -39 72 -39 63z m-603 -359 c-3 -7 -5 -2 -5 12 0 14 2 19 5 13 2 -7 2
-19 0 -25z m350 -370 c-3 -8 -6 -5 -6 6 -1 11 2 17 5 13 3 -3 4 -12 1 -19z
m-139 -43 c20 -14 45 -25 54 -25 23 0 23 -16 1 -24 -11 -4 -27 4 -48 24 -40
38 -58 40 -21 1 19 -20 24 -30 14 -33 -17 -6 -47 34 -45 60 2 27 0 27 45 -3z
m34 -72 c5 -24 -21 -52 -41 -46 -13 3 -12 2 2 -7 17 -11 24 -60 9 -60 -5 0
-15 11 -22 25 -11 21 -11 29 0 53 28 55 46 67 52 35z m504 -152 c2 -28 -20
-37 -52 -23 -30 14 -31 26 -1 39 32 15 52 9 53 -16z"/>
<path d="M90 1791 c0 -14 6 -21 18 -20 10 0 12 3 4 6 -6 2 -10 9 -7 13 3 5 1
11 -5 15 -5 3 -10 -3 -10 -14z"/>
<path d="M157 1753 c14 -16 30 -27 35 -25 5 1 7 -7 3 -20 -4 -16 -4 -19 3 -9
18 25 45 -32 40 -84 -3 -38 -1 -43 9 -28 7 10 22 27 33 39 16 15 19 28 15 47
-8 30 -15 33 -33 15 -17 -17 -45 10 -38 37 3 12 0 28 -7 36 -6 8 -11 12 -10
10 1 -2 -2 -12 -8 -23 -10 -18 -11 -18 -30 6 -11 15 -24 26 -29 26 -5 0 3 -12
17 -27z"/>
<path d="M202 1655 c0 -16 2 -22 5 -12 2 9 2 23 0 30 -3 6 -5 -1 -5 -18z"/>
<path d="M424 1532 c14 -19 26 -44 26 -57 0 -18 4 -23 15 -19 23 9 19 18 -26
66 -26 27 -31 30 -15 10z"/>
<path d="M339 1483 c-13 -16 -12 -17 4 -4 9 7 17 15 17 17 0 8 -8 3 -21 -13z"/>
<path d="M281 1458 c5 -10 17 -18 26 -18 9 0 26 -8 37 -17 12 -10 6 -2 -12 18
-35 39 -68 50 -51 17z"/>
<path d="M435 1430 c-3 -5 -20 -14 -38 -19 -23 -7 -26 -9 -11 -10 12 -1 32 8
45 19 13 10 21 19 17 20 -4 0 -10 -4 -13 -10z"/>
<path d="M1503 1097 c-38 -17 -66 -90 -67 -176 -2 -69 -4 -77 -25 -88 -38 -18
-65 -2 -69 40 -2 28 1 38 18 47 16 9 22 8 27 -5 4 -13 8 -14 14 -4 20 33 -35
40 -69 9 -29 -27 -30 -85 -3 -100 28 -15 63 -12 89 6 20 14 23 14 28 0 10 -25
20 -19 39 24 10 22 22 40 27 40 5 0 7 -3 4 -8 -2 -4 2 -22 9 -40 16 -36 53
-44 76 -15 13 15 12 15 -7 5 -28 -15 -39 -2 -51 57 -4 25 -13 46 -19 48 -6 2
-19 -15 -29 -37 -27 -61 -38 -50 -33 33 7 102 53 191 72 141 4 -10 -3 -38 -17
-66 -22 -44 -22 -47 -4 -31 22 20 47 73 47 102 0 23 -27 31 -57 18z"/>
<path d="M1657 1103 c-65 -16 -74 -239 -11 -280 19 -12 30 -13 47 -5 22 10 22
11 -4 11 -20 1 -30 9 -40 34 -18 41 -17 174 0 206 13 23 15 23 26 7 18 -24 11
-90 -14 -131 -11 -19 -17 -35 -13 -35 16 0 52 79 56 120 4 46 -18 80 -47 73z"/>
<path d="M767 938 c-14 -44 27 -62 68 -30 22 18 22 19 4 30 -25 16 -66 15 -72
0z"/>
<path d="M1870 921 c0 -16 -5 -42 -10 -57 -6 -15 -9 -28 -7 -30 3 -3 17 20 44
74 1 2 11 -1 22 -8 40 -21 15 -79 -30 -67 -16 4 -18 3 -8 -9 16 -20 53 -18 72
4 24 27 21 48 -10 71 -16 12 -32 24 -38 29 -30 24 -35 23 -35 -7z"/>
<path d="M2007 943 c-4 -3 -7 -22 -7 -40 0 -19 -5 -44 -11 -56 -7 -12 -8 -19
-4 -15 4 4 17 1 29 -7 27 -19 51 -19 70 1 23 23 20 61 -6 75 -13 6 -32 20 -44
30 -11 11 -24 16 -27 12z m47 -46 c24 -18 18 -61 -9 -65 -30 -3 -53 14 -37 30
6 6 12 20 12 30 0 21 10 23 34 5z"/>
<path d="M367 915 c3 -8 9 -12 14 -9 12 7 11 11 -5 17 -10 4 -13 1 -9 -8z"/>
<path d="M1722 910 c-40 -64 24 -127 86 -84 37 26 28 104 -12 104 -33 0 -39
-12 -13 -24 15 -8 22 -21 22 -41 0 -25 -4 -30 -25 -30 -31 0 -52 38 -39 72 10
28 -1 31 -19 3z"/>
<path d="M103 680 c-46 -27 -66 -64 -67 -119 -1 -57 31 -107 80 -127 45 -19
67 -17 28 2 -39 19 -60 81 -51 153 7 59 23 88 57 100 21 8 22 10 5 10 -11 1
-34 -8 -52 -19z"/>
<path d="M200 692 c0 -5 6 -12 14 -15 20 -8 43 -86 39 -135 -3 -50 -17 -80
-47 -104 -29 -24 -8 -22 32 2 69 42 90 120 51 190 -18 33 -32 44 -81 68 -5 2
-8 -1 -8 -6z"/>
<path d="M346 688 c4 -6 7 -68 7 -138 l0 -128 23 2 c13 0 24 6 25 11 1 13 1
237 0 251 -1 6 -15 11 -31 12 -19 0 -28 -3 -24 -10z"/>
<path d="M432 693 c43 -11 58 -74 24 -107 -22 -22 -22 -23 -2 -32 10 -5 22
-18 26 -29 10 -31 -7 -83 -31 -90 -35 -11 -15 -15 23 -5 40 12 57 27 63 61 5
27 -19 69 -40 69 -21 0 -19 13 5 28 25 15 26 63 3 85 -10 8 -34 17 -53 20 -19
2 -27 2 -18 0z"/>
<path d="M571 683 c7 -8 10 -58 8 -136 l-4 -123 40 0 c22 0 34 1 28 3 -9 3
-13 26 -13 69 0 44 4 64 13 64 9 0 9 3 -1 9 -10 6 -13 26 -10 69 l3 60 -37 -1
c-29 -1 -35 -4 -27 -14z"/>
<path d="M670 693 c14 -3 35 -14 48 -26 16 -15 22 -17 22 -6 0 25 -14 35 -55
36 -24 1 -30 -1 -15 -4z"/>
<path d="M787 688 c10 -16 12 -228 2 -248 -6 -12 0 -15 31 -15 25 0 36 3 31
10 -4 5 -7 67 -6 136 l1 125 -34 2 c-25 2 -32 0 -25 -10z"/>
<path d="M880 689 c32 -13 40 -26 40 -69 0 -44 -11 -61 -39 -63 -18 -1 -19 -3
-8 -12 7 -5 27 -35 43 -65 25 -46 35 -55 58 -55 15 -1 30 3 32 7 3 4 1 8 -4 8
-4 0 -18 18 -31 40 -12 22 -32 46 -43 54 l-21 15 26 12 c31 14 48 55 36 87 -9
23 -64 53 -96 51 -13 0 -11 -3 7 -10z"/>
<path d="M1031 683 c8 -10 20 -24 27 -31 7 -8 49 -61 94 -118 44 -57 82 -103
84 -102 1 2 4 17 7 34 4 25 -2 38 -27 65 -17 19 -55 64 -85 102 -44 56 -58 67
-83 67 -28 0 -29 -2 -17 -17z"/>
<path d="M1230 686 c7 -7 14 -6 21 1 9 9 7 12 -9 10 -14 -1 -18 -5 -12 -11z"/>
<path d="M1298 573 c2 -73 0 -129 -6 -136 -8 -9 -1 -12 24 -13 l34 -1 0 133 0
133 33 4 c17 2 5 4 -28 4 l-60 0 3 -124z"/>
<path d="M1631 682 c-52 -26 -75 -63 -75 -121 0 -56 20 -93 67 -121 45 -28 55
-25 25 8 -31 33 -41 62 -40 119 1 53 26 107 55 121 12 6 18 11 12 11 -5 1 -25
-7 -44 -17z"/>
<path d="M1717 691 c32 -14 54 -65 54 -124 0 -62 -12 -98 -42 -126 -29 -26
-14 -27 28 -1 63 38 86 105 59 174 -18 45 -48 72 -92 81 -25 5 -26 4 -7 -4z"/>
<path d="M1867 562 l2 -137 35 0 c23 -1 32 3 27 10 -5 5 -9 65 -9 133 0 121 0
122 23 122 28 0 55 -34 55 -68 0 -31 -17 -62 -35 -62 -17 0 -20 -16 -5 -25 6
-4 20 -28 32 -53 12 -26 23 -49 25 -51 3 -5 63 -9 63 -5 0 17 -74 114 -87 114
-9 0 -2 9 18 23 25 16 35 31 37 54 5 55 -47 84 -148 82 l-35 -1 2 -136z"/>
<path d="M2117 683 c8 -22 8 -243 0 -243 -5 0 -6 -4 -3 -8 2 -4 17 -8 33 -7
l28 0 0 130 0 130 30 6 c19 4 8 6 -31 6 -45 -1 -61 -4 -57 -14z"/>
<path d="M2262 671 c13 -15 24 -28 25 -27 1 0 -1 13 -4 29 -4 18 -11 27 -25
27 -19 0 -18 -1 4 -29z"/>
<path d="M1432 676 c24 -18 38 -60 38 -116 0 -66 -13 -96 -52 -121 -28 -17
-29 -19 -8 -14 93 27 137 98 110 179 -12 39 -62 86 -88 86 -16 -1 -16 -2 0
-14z"/>
<path d="M676 575 c-16 -12 -17 -15 -4 -15 9 0 18 -6 21 -12 2 -7 4 -1 4 15 0
15 0 27 -1 27 0 0 -10 -7 -20 -15z"/>
<path d="M2223 576 c-10 -11 -9 -15 2 -20 10 -4 15 1 15 14 0 23 -1 24 -17 6z"/>
<path d="M722 455 c-27 -28 -27 -33 -4 -31 9 0 20 12 24 25 10 33 7 34 -20 6z"/>
<path d="M1034 442 c-9 -14 -8 -18 6 -18 11 0 15 6 12 18 -2 10 -5 18 -6 18
-1 0 -6 -8 -12 -18z"/>
</g>
</svg>
